<?xml version="1.0" encoding="UTF-8"?><!DOCTYPE svg PUBLIC "-//W3C//DTD SVG 1.1//EN" "http://www.w3.org/Graphics/SVG/1.1/DTD/svg11.dtd"><svg xmlns="http://www.w3.org/2000/svg" xmlns:xlink="http://www.w3.org/1999/xlink"><symbol id="chevron" viewBox="0 0 15 27"><path d="M14.46 14.46L3.146 25.774A1.842 1.842 0 1 1 .54 23.168L10.55 13.157.54 3.146A1.843 1.843 0 0 1 3.146.54l11.315 11.314c.36.36.539.831.539 1.303s-.18.943-.54 1.303z" fill="#0EC1B8"/></symbol><symbol id="figure" viewBox="0 0 83 72"><path clip-rule="evenodd" d="M82 35.641L62 70.282H22L2 35.641 22 1h40l20 34.641z" stroke="#00EBDD" stroke-width="2"/></symbol><symbol id="play-button" viewBox="0 0 81 80"><path d="M40.436 10C23.627 10 10 23.431 10 40c0 16.569 13.627 30 30.436 30 16.81 0 30.437-13.431 30.437-30 0-16.569-13.627-30-30.437-30zm10.52 31.59l-15.218 9.375a1.923 1.923 0 0 1-1.93.05 1.87 1.87 0 0 1-.98-1.64v-18.75c0-.682.374-1.31.98-1.64a1.92 1.92 0 0 1 1.93.05l15.218 9.375c.556.343.894.944.894 1.59a1.87 1.87 0 0 1-.894 1.59z" fill="#fff"/></symbol></svg>