<svg width="81" height="80" viewBox="0 0 81 80"  xmlns="http://www.w3.org/2000/svg">
<path d="M40.4364 10C23.627 10 10 23.4314 10 40C10 56.5686 23.627 70 40.4364 70C57.2457 70 70.8727 56.5686 70.8727 40C70.8727 23.4314 57.2457 10 40.4364 10ZM50.9559 41.5902L35.7377 50.9652C35.4298 51.1547 35.0797 51.25 34.7295 51.25C34.4123 51.25 34.0947 51.1722 33.8072 51.0147C33.2025 50.6842 32.8273 50.057 32.8273 49.375V30.625C32.8273 29.943 33.2025 29.3158 33.8072 28.9853C34.4119 28.653 35.1513 28.6731 35.7377 29.0348L50.9559 38.4098C51.5119 38.7531 51.85 39.3537 51.85 40C51.85 40.6463 51.5119 41.247 50.9559 41.5902Z" fill="white"/>
</svg>
